<mxfile host="65bd71144e">
    <diagram id="eWmFdwvhT14C08LEfvOo" name="第 1 页">
        <mxGraphModel dx="758" dy="1142" grid="1" gridSize="10" guides="1" tooltips="1" connect="1" arrows="1" fold="1" page="1" pageScale="1" pageWidth="827" pageHeight="1169" math="0" shadow="0">
            <root>
                <mxCell id="0"/>
                <mxCell id="1" parent="0"/>
                <mxCell id="2" style="edgeStyle=none;html=1;exitX=0.5;exitY=0;exitDx=0;exitDy=0;" edge="1" parent="1" source="3" target="16">
                    <mxGeometry relative="1" as="geometry"/>
                </mxCell>
                <mxCell id="3" value="" style="rounded=0;whiteSpace=wrap;html=1;" vertex="1" parent="1">
                    <mxGeometry x="190" y="280" width="370" height="100" as="geometry"/>
                </mxCell>
                <mxCell id="4" value="" style="group" vertex="1" connectable="0" parent="1">
                    <mxGeometry x="200" y="300" width="340" height="30" as="geometry"/>
                </mxCell>
                <mxCell id="5" value="categorical" style="rounded=0;whiteSpace=wrap;html=1;fillColor=#dae8fc;strokeColor=#6c8ebf;" vertex="1" parent="4">
                    <mxGeometry x="80" width="110" height="30" as="geometry"/>
                </mxCell>
                <mxCell id="6" value="numerical" style="rounded=0;whiteSpace=wrap;html=1;fillColor=#BCC8D9;strokeColor=#6c8ebf;" vertex="1" parent="4">
                    <mxGeometry x="190" width="150" height="30" as="geometry"/>
                </mxCell>
                <mxCell id="7" value="subject_user" style="text;html=1;strokeColor=none;fillColor=none;align=center;verticalAlign=middle;whiteSpace=wrap;rounded=0;" vertex="1" parent="4">
                    <mxGeometry y="5" width="70" height="20" as="geometry"/>
                </mxCell>
                <mxCell id="8" value="" style="group" vertex="1" connectable="0" parent="1">
                    <mxGeometry x="200" y="340" width="340" height="30" as="geometry"/>
                </mxCell>
                <mxCell id="9" value="categorical" style="rounded=0;whiteSpace=wrap;html=1;fillColor=#d5e8d4;strokeColor=#82b366;" vertex="1" parent="8">
                    <mxGeometry x="80" width="110" height="30" as="geometry"/>
                </mxCell>
                <mxCell id="10" value="numerical" style="rounded=0;whiteSpace=wrap;html=1;fillColor=#C5D6C4;strokeColor=#82b366;" vertex="1" parent="8">
                    <mxGeometry x="190" width="150" height="30" as="geometry"/>
                </mxCell>
                <mxCell id="11" value="object_user" style="text;html=1;strokeColor=none;fillColor=none;align=center;verticalAlign=middle;whiteSpace=wrap;rounded=0;" vertex="1" parent="8">
                    <mxGeometry y="5" width="70" height="20" as="geometry"/>
                </mxCell>
                <mxCell id="12" value="" style="group" vertex="1" connectable="0" parent="1">
                    <mxGeometry x="280" y="120" width="130" height="30" as="geometry"/>
                </mxCell>
                <mxCell id="13" value="Prediction" style="text;html=1;strokeColor=none;fillColor=none;align=center;verticalAlign=middle;whiteSpace=wrap;rounded=0;" vertex="1" parent="12">
                    <mxGeometry x="10" y="-5" width="60" height="30" as="geometry"/>
                </mxCell>
                <mxCell id="14" value="dec" style="ellipse;whiteSpace=wrap;html=1;aspect=fixed;fillColor=#f8cecc;strokeColor=#b85450;" vertex="1" parent="12">
                    <mxGeometry x="75" y="-10" width="40" height="40" as="geometry"/>
                </mxCell>
                <mxCell id="15" style="edgeStyle=none;html=1;exitX=0.5;exitY=0;exitDx=0;exitDy=0;entryX=0.5;entryY=1;entryDx=0;entryDy=0;" edge="1" parent="1" source="16">
                    <mxGeometry relative="1" as="geometry">
                        <mxPoint x="375" y="150" as="targetPoint"/>
                    </mxGeometry>
                </mxCell>
                <mxCell id="16" value="Model" style="rounded=0;whiteSpace=wrap;html=1;" vertex="1" parent="1">
                    <mxGeometry x="315" y="190" width="120" height="60" as="geometry"/>
                </mxCell>
                <mxCell id="17" value="Input" style="text;html=1;strokeColor=none;fillColor=none;align=center;verticalAlign=middle;whiteSpace=wrap;rounded=0;" vertex="1" parent="1">
                    <mxGeometry x="120" y="320" width="60" height="30" as="geometry"/>
                </mxCell>
            </root>
        </mxGraphModel>
    </diagram>
</mxfile>